<?xml version="1.0" standalone="no"?><!DOCTYPE svg PUBLIC "-//W3C//DTD SVG 1.1//EN" "http://www.w3.org/Graphics/SVG/1.1/DTD/svg11.dtd"><svg t="1663826641019" class="icon" viewBox="0 0 1042 1024" version="1.1" xmlns="http://www.w3.org/2000/svg" p-id="3359" xmlns:xlink="http://www.w3.org/1999/xlink" width="203.515625" height="200"><path d="M657.645044 0h-272.871277l-179.387599 64.175282 16.624935 97.728343 299.071973 189.14022 299.223569-189.14022 16.624935-97.728343z m-130.472896 238.130721h-11.900219l-127.64312-116.222951h267.186459z" fill="#C05CFF" p-id="3360"></path><path d="M609.109329 139.619137l-87.899923 80.016975-87.874658-80.016975h175.774581z" fill="#F8FF00" p-id="3361"></path><path d="M435.356017 511.886304l-211.020455-21.779171-168.978065-123.929038L0 47.474549l187.977991 18.999926 18.065089 106.16714 196.315725 124.156431 32.997212 215.088258zM1042.444077 47.474549l-55.332231 318.703546-169.003331 123.929038-210.995189 21.779171 32.971946-215.088258 196.315725-124.156431 18.065089-106.16714 187.977991-18.999926z" fill="#DB99B4" p-id="3362"></path><path d="M620.276839 309.329912l-31.354931 204.426065-1.136964 0.126329v7.276568l-0.833773 5.43216 0.833773 0.454785v254.755656h-133.100545V527.045819l0.808507-0.454785-0.808507-5.280565v-7.428163l-1.16223-0.126329-31.354931-204.426065 91.361346 57.757754 7.680822 4.851045 7.706087-4.851045 91.361346-57.757754z" fill="#B299C2" p-id="3363"></path><path d="M416.987737 527.778529l-115.060722 63.998421-76.252362-38.126181 3.486688-45.251154 187.826396 19.378914zM816.769424 553.650769l-76.252362 38.126181-115.035456-63.998421 187.80113-19.378914 3.486688 45.251154z" fill="#BF0021" p-id="3364"></path><path d="M936.832786 424.971749l-24.381554 389.170026-163.318512 138.532705V607.264921l86.181845-43.103555-4.724716-61.269708 106.242937-77.919909zM293.311357 607.264921v345.409559l-163.318512-138.532705L105.611291 424.971749l106.242937 77.919909-4.724716 61.269708 86.181845 43.103555z" fill="#FF15E2" p-id="3365"></path><path d="M731.446618 606.986997V967.6824l-66.398677 56.3176-62.507735-151.822547h-162.636335l-62.507735 151.822547L310.997459 967.6824V606.986997l126.000839-70.112759v262.613339h168.472747V536.899504l125.975573 70.087493z" fill="#6E00B2" p-id="3366"></path><path d="M103.365156 201.672087l9.835999-14.697151 214.726956 143.691994-9.835999 14.69715zM117.683318 300.216517l10.081078-14.502604 212.316593 147.587989-10.081078 14.502603z" fill="#6EFF5C" p-id="3367"></path><path d="M714.538706 330.679563l214.749695-143.654095 9.833472 14.699677-214.749695 143.654095zM701.27413 431.098719l213.180685-146.953815 10.038126 14.563241-213.180686 146.953816z" fill="#6EFF5C" p-id="3368"></path></svg>