<?xml version="1.0" encoding="UTF-8"?>
<svg width="24px" height="24px" viewBox="0 0 24 24" version="1.1" xmlns="http://www.w3.org/2000/svg" xmlns:xlink="http://www.w3.org/1999/xlink">
    <title>Icon/Nav/channel</title>
    <g id="Icon/Nav/channel" stroke="none" stroke-width="1" fill="none" fill-rule="evenodd">
        <g id="interface-essential-144">
            <polygon id="路径" points="0 0 24 0 24 24 0 24"></polygon>
            <path d="M8.75,10.75 L6,10.75 C4.895,10.75 4,9.855 4,8.75 L4,6 C4,4.895 4.895,4 6,4 L8.75,4 C9.855,4 10.75,4.895 10.75,6 L10.75,8.75 C10.75,9.855 9.855,10.75 8.75,10.75 Z" id="路径" stroke="#A4B4FF" stroke-linecap="round" stroke-linejoin="round"></path>
            <path d="M18,10.75 L15.25,10.75 C14.145,10.75 13.25,9.855 13.25,8.75 L13.25,6 C13.25,4.895 14.145,4 15.25,4 L18,4 C19.105,4 20,4.895 20,6 L20,8.75 C20,9.855 19.105,10.75 18,10.75 Z" id="路径" stroke="#A4B4FF" stroke-linecap="round" stroke-linejoin="round"></path>
            <path d="M8.75,20 L6,20 C4.895,20 4,19.105 4,18 L4,15.25 C4,14.145 4.895,13.25 6,13.25 L8.75,13.25 C9.855,13.25 10.75,14.145 10.75,15.25 L10.75,18 C10.75,19.105 9.855,20 8.75,20 Z" id="路径" stroke="#A4B4FF" stroke-linecap="round" stroke-linejoin="round"></path>
            <path d="M18,20 L15.25,20 C14.145,20 13.25,19.105 13.25,18 L13.25,15.25 C13.25,14.145 14.145,13.25 15.25,13.25 L18,13.25 C19.105,13.25 20,14.145 20,15.25 L20,18 C20,19.105 19.105,20 18,20 Z" id="路径" stroke="#A4B4FF" stroke-linecap="round" stroke-linejoin="round"></path>
        </g>
    </g>
</svg>