<?xml version="1.0" encoding="UTF-8"?>
<svg width="184px" height="101px" viewBox="0 0 184 101" version="1.1" xmlns="http://www.w3.org/2000/svg" xmlns:xlink="http://www.w3.org/1999/xlink">
    <title>closeEye</title>
    <g id="页面-1" stroke="none" stroke-width="1" fill="none" fill-rule="evenodd">
        <g id="closeEye" transform="translate(0.203125, 0.187500)" fill="#B2B2B2" fill-rule="nonzero">
            <path d="M83.4635416,65.8958334 C76.421875,65.4208334 69.546875,64.2291668 62.9635416,62.3958334 L49.3302084,91.6291666 C48.3948519,93.6218838 46.7040543,95.1597846 44.6318642,95.9026452 C42.5596741,96.6455058 40.2768966,96.5320942 38.2885416,95.5875 C34.145685,93.6565792 32.3313474,88.7489446 34.221875,84.5875 L47.3052084,56.5291666 C36.1836668,51.2988362 26.2775819,43.8025697 18.221875,34.5208334 C12.2677169,27.6401908 7.59901895,19.7451798 4.4385416,11.2125 C3.41438018,8.41689675 3.9594526,5.2872692 5.86843535,3.00251778 C7.7774181,0.717766365 10.7602913,-0.37500082 13.6934354,0.135851057 C16.6265796,0.646702934 19.0643803,2.68356332 20.0885416,5.4791666 C22.5642081,12.1375442 26.2167471,18.2966169 30.871875,23.6625 C44.6552084,39.7291666 66.6052084,49.4791666 90.571875,49.4791666 C114.546875,49.4791666 136.496875,39.7208332 150.280208,23.6625 C154.935336,18.2966169 158.587875,12.1375441 161.063542,5.4791666 C162.646758,1.15753855 167.43358,-1.06238277 171.755208,0.520833503 C176.076836,2.10404977 178.296758,6.89087187 176.713542,11.2125 C173.553064,19.7451798 168.884366,27.6401907 162.930208,34.5208334 C161.752043,35.8938922 160.529163,37.2279426 159.263542,38.5208334 L179.646875,58.9041666 C182.845272,62.1675108 182.819251,67.3978081 179.588542,70.6291666 C178.043546,72.1956382 175.938321,73.0823341 173.738156,73.0932802 C171.537991,73.1042263 169.424048,72.2385214 167.863542,70.6875 L146.446875,49.2708334 C142.446875,52.0208334 138.196875,54.4625 133.746875,56.5791666 L146.813542,84.5791666 C148.709619,88.7427996 146.89442,93.6564842 142.746875,95.5875 C140.75852,96.5320941 138.475743,96.6455057 136.403553,95.9026451 C134.331363,95.1597845 132.640565,93.6218837 131.705208,91.6291666 L118.088542,62.4208334 C112.213005,64.0516058 106.202669,65.1504793 100.130208,65.7041666 L100.130208,91.2208334 C100.089049,95.7938901 96.3701169,99.4791666 91.796875,99.4791666 C87.1635416,99.4791666 83.4635416,95.7791666 83.4635416,91.2291666 L83.4635416,65.8958334 Z" id="路径"></path>
            <path d="M26.196875,35.2291666 C27.7562766,33.6770484 29.8695957,32.8098487 32.0697585,32.8191557 C34.2699213,32.8286134 36.3757675,33.7138053 37.921875,35.2791666 C41.1580808,38.5114929 41.1841153,43.7481561 37.9802084,47.0125 L14.3052084,70.6875 C12.7443645,72.2410843 10.6286274,73.1084144 8.42641532,73.0975683 C6.22420322,73.0865174 4.11719455,72.1981935 2.571875,70.6291666 C-0.658834068,67.3978081 -0.684855476,62.1675108 2.5135416,58.9041666 L26.196875,35.2208334 L26.196875,35.2291666 Z" id="路径"></path>
        </g>
    </g>
</svg>