<?xml version="1.0" encoding="UTF-8"?>
<svg width="177px" height="104px" viewBox="0 0 177 104" version="1.1" xmlns="http://www.w3.org/2000/svg" xmlns:xlink="http://www.w3.org/1999/xlink">
    <title>eye</title>
    <g id="é¡µé¢-1" stroke="none" stroke-width="1" fill="none" fill-rule="evenodd">
        <g id="eye" transform="translate(0.304688, 0.437500)" fill="#B2B2B2" fill-rule="nonzero">
            <path d="M87.6852193,0.157752344 C30.4310377,0.157752344 0.0748191406,54.45314 0.0748191406,54.45314 C0.0748191406,54.45314 32.8517963,102.71302 87.6852193,102.71302 C142.52264,102.71302 175.303214,54.45314 175.303214,54.45314 C175.303214,54.45314 148.373073,0.157752344 87.6852193,0.157752344 Z M87.7389828,82.3282408 C70.2810193,82.3282408 56.1278152,68.5174045 56.1278152,51.4835535 C56.1278152,34.4499023 70.2810193,20.6388662 87.7389828,20.6388662 C105.196946,20.6388662 119.35015,34.4499023 119.35015,51.4835535 C119.35015,68.5174045 105.196746,82.3282408 87.7389828,82.3282408 Z M87.6890168,38.9060811 C80.045599,38.9060811 73.8496,45.0521141 73.8496,52.6313754 C73.8496,60.2106367 80.045599,66.3566697 87.6890168,66.3566697 C95.3324346,66.3566697 101.528434,60.2106367 101.528434,52.6313754 C101.528434,45.0521141 95.3324346,38.9060811 87.6890168,38.9060811 Z" id="å½¢çŠ¶"></path>
        </g>
    </g>
</svg>