<?xml version="1.0" encoding="UTF-8"?>
<svg width="24px" height="24px" viewBox="0 0 24 24" version="1.1" xmlns="http://www.w3.org/2000/svg" xmlns:xlink="http://www.w3.org/1999/xlink">
    <title>Icon/Nav/Marketing</title>
    <g id="Icon/Nav/Marketing" stroke="none" stroke-width="1" fill="none" fill-rule="evenodd">
        <g id="编组-9" transform="translate(4.000000, 4.000000)">
            <rect id="bk" fill-opacity="0" fill="#262326" x="0" y="0" width="16" height="16"></rect>
            <path d="M16.5,-0.5 L16.5,5.24633831 C16.3039615,6.31322089 15.9236489,7.1040653 15.3901745,7.63753971 C14.835423,8.1922912 14.11111,8.48721313 13.2,8.5 C12.0697539,8.5 11.3334801,8.17788588 10.8401601,7.70869571 C10.6795698,7.55596041 10.5440525,7.38538804 10.4302067,7.20101159 C10.3343323,7.3804184 10.2209937,7.54607206 10.0869254,7.69425046 C9.65389339,8.17285741 9.00953797,8.5 8,8.5 C7.19442913,8.5 6.54590993,8.20482304 6.04925791,7.62539569 C5.8848636,7.43360232 5.73705695,7.20741167 5.60735467,6.94601876 C5.47403295,7.16105433 5.31670542,7.35905306 5.13919121,7.53656727 C4.5417438,8.13401469 3.71458537,8.5 2.8,8.5 C1.88873016,8.5 1.06373016,8.13063492 0.466547622,7.53345238 C-0.130634919,6.93626984 -0.5,6.11126984 -0.5,5.2 L-0.5,5.2 L-0.5,-0.5 L16.5,-0.5 Z" id="矩形" stroke="#A4B4FF" stroke-linejoin="round"></path>
            <path d="M5.6,16.2 L3.6,16.2 C2.0536027,16.2 0.8,14.9463973 0.8,13.4 L0.8,8.6 M15.2,8.2 L15.2,10.2" id="形状" stroke="#A4B4FF" stroke-linecap="round" stroke-linejoin="round"></path>
            <polyline id="路径-4" stroke="#A4B4FF" stroke-linecap="round" stroke-linejoin="round" points="8 16.296875 10.4310547 13.8658203 12.5820312 16.0167969 15.5988281 13"></polyline>
            <polyline id="路径-5" stroke="#A4B4FF" stroke-linecap="round" stroke-linejoin="round" points="13.6 12.44 16 12.44 16 14.84"></polyline>
        </g>
    </g>
</svg>