<?xml version="1.0" standalone="no"?><!DOCTYPE svg PUBLIC "-//W3C//DTD SVG 1.1//EN" "http://www.w3.org/Graphics/SVG/1.1/DTD/svg11.dtd"><svg t="1668492726692" class="icon" viewBox="0 0 1024 1024" version="1.1" xmlns="http://www.w3.org/2000/svg" p-id="1992" xmlns:xlink="http://www.w3.org/1999/xlink" width="200" height="200"><path d="M511.3 507.8m-447.4 0a447.4 447.4 0 1 0 894.8 0 447.4 447.4 0 1 0-894.8 0Z" fill="#FDCE85" p-id="1993"></path><path d="M683.9 296.6m-36 0a36 36 0 1 0 72 0 36 36 0 1 0-72 0Z" fill="#FFFFFF" p-id="1994"></path><path d="M319.9 321.6l12.6-23c1.4-2.6 5.2-2.6 6.6 0l12.6 23 23 12.6c2.6 1.4 2.6 5.2 0 6.6l-23 12.6-12.6 23c-1.4 2.6-5.2 2.6-6.6 0l-12.6-23-23-12.6c-2.6-1.4-2.6-5.2 0-6.6l23-12.6z" fill="#FFFFFF" p-id="1995"></path><path d="M532.4 346.7m-6.9 0a6.9 6.9 0 1 0 13.8 0 6.9 6.9 0 1 0-13.8 0Z" fill="#FFFFFF" p-id="1996"></path><path d="M454.6 288.9m-19.2 0a19.2 19.2 0 1 0 38.4 0 19.2 19.2 0 1 0-38.4 0Z" fill="#FFFFFF" p-id="1997"></path><path d="M186.1 516.6s144.7-123.5 204.6-83.9c28.8 14.6 52 27.8 63.8 34.6 3.9 2.3 4 7.9 0.1 10.2l-6.5 4c-7.5 4.6-17 3.4-23.2-2.8-14.9-14.9-43.3-39.8-65-37.5-27.9 2.9-85.8 46.2-161.8 108.7l-12-33.3zM847.1 516.6s-144.7-123.5-204.6-83.9c-28.8 14.6-52 27.8-63.8 34.6-3.9 2.3-4 7.9-0.1 10.2l6.5 4c7.5 4.6 17 3.4 23.2-2.8 14.9-14.9 43.3-39.8 65-37.5 27.9 2.9 85.8 46.2 161.8 108.7l12-33.3z" fill="#FFE6C7" p-id="1998"></path><path d="M849.2 516.6s-153.7-4-331.5 29.6c-177.8-33.6-331.5-29.6-331.5-29.6l-8 33.4c40.7 15.3 37.9 140.2 55.8 167.9 17.9 27.6 220.7 73.2 240.4 1.6 9.1-33 19.2-72.7 29.4-100 4.8-13 23.1-13 27.9 0 10.1 27.4 20.3 67.1 29.4 100 19.7 71.6 222.5 26 240.4-1.6 17.9-27.6 15.1-152.5 55.8-167.9l-8.1-33.4z" fill="#FFFFFF" p-id="1999"></path><path d="M271.9 547.5c-22.5-0.9-40 19.2-36 41.3 4.4 24.2 10.5 55.9 15.2 79.3 4.6 23.1 22.1 41.6 44.9 47.3 37.9 9.5 94.8 16.8 129.7 7.6 9-2.4 16.8-8 21.8-15.8 10.2-15.7 18.4-42 24.5-67.2 8.7-36.3-15.7-72.1-52.7-77.4-42.7-6.2-99.3-13.2-147.4-15.1zM760.7 547.5c22.5-0.9 40 19.2 36 41.3-4.4 24.2-10.5 55.9-15.2 79.3-4.6 23.1-22.1 41.6-44.9 47.3-37.9 9.5-94.8 16.8-129.7 7.6-9-2.4-16.8-8-21.8-15.8-10.2-15.7-18.4-42-24.5-67.2-8.7-36.3 15.7-72.1 52.7-77.4 42.7-6.2 99.3-13.2 147.4-15.1z" fill="#FFDEBB" p-id="2000"></path><path d="M409.8 561.1L296 715.4l15.4 3.5L427 564.1zM769.7 526.9l-157.1 213 21.3 4.8L793.4 531z" fill="#FFFFFF" p-id="2001"></path><path d="M424.6 555.6L298.4 724.5l-63.1-39.2 119.3-149.8z" fill="#FFFFFF" p-id="2002"></path></svg>