<?xml version="1.0" standalone="no"?><!DOCTYPE svg PUBLIC "-//W3C//DTD SVG 1.1//EN" "http://www.w3.org/Graphics/SVG/1.1/DTD/svg11.dtd"><svg t="1665729786768" class="icon" viewBox="0 0 1024 1024" version="1.1" xmlns="http://www.w3.org/2000/svg" p-id="8438" xmlns:xlink="http://www.w3.org/1999/xlink" width="200" height="200"><path d="M824 750.4a8 8 0 0 1 7.776 6.176L832 758.4v20a28 28 0 0 1-24.48 27.776l-3.52 0.224H200a8 8 0 0 1-7.776-6.176L192 798.4v-20c0-14.272 10.688-26.048 24.48-27.776l3.52-0.224H824z m-308.896-177.6c14.272 0 26.048 10.688 27.776 24.48l0.224 3.52v20a8 8 0 0 1-6.176 7.776l-1.824 0.224H220a28 28 0 0 1-27.776-24.48L192 600.8v-20a8 8 0 0 1 6.176-7.776l1.824-0.224h315.104z m279.616-154.784a31.744 31.744 0 0 1 8.16 21.248v145.472a31.744 31.744 0 0 1-52.96 23.584l-80.832-72.736a31.744 31.744 0 0 1 0-47.168l80.832-72.736a31.744 31.744 0 0 1 44.8 2.336z m-259.616-22.816a8 8 0 0 1 8 8v20a28 28 0 0 1-28 28H200a8 8 0 0 1-8-8v-20c0-15.456 12.544-28 28-28h315.104z m268.896-177.6c15.456 0 28 12.544 28 28V265.6a8 8 0 0 1-8 8H220A28 28 0 0 1 192 245.6V225.6a8 8 0 0 1 8-8h604z" p-id="8439" fill="#465FD2"></path></svg>